<svg width="141" height="94" viewBox="0 0 141 94" fill="none" xmlns="http://www.w3.org/2000/svg">
<path d="M70.6942 13.4646C28.6793 7.35936 2.42778 69.5923 45.235 86.4866C75.4274 98.4969 136.521 86.4866 136.125 47.0531C135.812 26.4356 118.381 10.1417 99.1976 3.95647C78.3465 -2.76925 54.1176 0.59361 34.5593 9.74139C16.0435 18.4288 -2.61818 37.565 1.05161 58.8632C4.61714 79.4407 29.3674 90.1097 48.5503 92.6919C59.9276 94.037 71.4747 92.8662 82.3082 89.269C94.8336 85.7878 106.731 80.4888 117.588 73.5557C127.075 67.1302 134.79 57.6822 135.916 46.2324C137.167 33.5016 130.683 22.8125 120.591 14.9658C101.554 0.213286 77.1997 0.733728 55.5354 9.08083C36.7695 16.347 18.0035 30.9194 15.4805 51.3968C12.9576 71.8742 29.8886 90.1297 50.6354 92.4918C73.5716 95.074 97.4461 85.6259 115.628 72.8751C129.911 62.8666 145.487 44.8512 138.689 26.8359C132.622 10.7222 112.229 4.11661 96.3618 2.07487C67.9001 -1.58825 37.3116 10.0617 28.9086 38.4458C28.7808 39.2047 29.2707 39.9337 30.0436 40.1346C30.8165 40.3356 31.6227 39.9436 31.9112 39.2265C39.6678 13.2043 66.5031 2.89557 92.6086 4.71712C110.269 5.91814 135.812 14.3053 137.167 34.4424C137.897 45.3917 130.099 55.9807 122.447 63.347C113.858 71.2003 103.863 77.5001 92.9422 81.9428C71.6116 91.1907 40.2099 96.255 24.9261 74.6966C8.95416 52.1575 25.3223 28.6575 46.4444 16.6473C69.3805 3.73628 98.1133 1.37427 119.632 18.1085C132.726 28.3172 136.709 44.6311 128.139 58.8431C120.924 70.8534 105.828 77.5791 93.0257 82.4432C81.1614 86.9671 69.0678 90.4901 56.1818 90.3099C43.5084 90.0472 31.1589 86.4164 20.5057 79.821C10.7265 73.7158 3.57459 64.0476 3.63714 52.5778C3.63714 39.827 13.3329 28.077 23.0703 20.3304C41.4818 5.67793 68.7342 0.553576 91.8788 5.15749C114.44 9.66132 136.688 29.298 132.497 53.1983C128.848 73.936 103.743 83.7643 84.7895 86.887C62.9167 90.4901 32.224 86.3465 26.6984 61.6255C21.444 37.8853 44.7763 12.7039 69.8601 16.4271C71.8201 16.7073 72.675 13.8249 70.6942 13.5446V13.4646Z" fill="#D3F113"/>
</svg>
