<svg width="65" height="63" viewBox="0 0 65 63" fill="none" xmlns="http://www.w3.org/2000/svg">
<path fill-rule="evenodd" clip-rule="evenodd" d="M41.1527 10.5031L41.2361 10.5839L53.7269 22.661L58.5135 27.2884L58.5149 27.2871C59.0587 27.7951 59.2749 28.5451 59.0803 29.2491C58.8857 29.9534 58.3105 30.5017 57.5759 30.684C56.8417 30.866 56.0625 30.6542 55.5371 30.1296L55.5357 30.131L54.3373 28.9725V37.8697V37.8724C54.3361 46.5804 48.1371 54.1538 39.3461 56.1481C34.4003 57.27 29.2503 57.27 24.3045 56.1481L24.5697 55.0739L24.5691 55.0729L24.3045 56.1481C15.5134 54.1538 9.31458 46.5804 9.3133 37.8724V37.8697V28.9725L8.1149 30.131L8.11352 30.1296C7.58802 30.6542 6.80882 30.866 6.07478 30.684C5.34011 30.5017 4.76496 29.9534 4.57032 29.2491C4.37567 28.5451 4.59182 27.7951 5.1357 27.2871L5.1371 27.2884L9.9237 22.661L22.4145 10.5839L22.4987 10.5024L22.4987 10.5024C24.2867 8.77262 25.7759 7.33205 27.1157 6.34488C28.5269 5.30462 30.0165 4.57349 31.8253 4.57349C33.6341 4.57349 35.1265 5.30462 36.5321 6.34488C37.8749 7.33218 39.3643 8.77303 41.1527 10.5031ZM50.1373 24.9122V37.8697V37.8724C50.1361 44.0698 46.1455 49.5195 40.2949 51.6588C40.5565 50.2582 40.5535 48.8145 40.2785 47.3987L40.2231 47.1249L40.2253 47.1245C39.6349 44.0756 37.2887 41.6147 34.1773 40.7808L33.0573 44.6677C34.6083 45.0817 35.7955 46.3179 36.0981 47.8658L36.0953 47.8664H36.0981L36.1485 48.1433C36.4517 49.6893 36.2559 51.2846 35.5931 52.7163C33.0909 53.0366 30.5555 53.0364 28.0533 52.7158C27.3913 51.2821 27.1971 49.6877 27.4993 48.1433H27.5021L27.5551 47.8676L27.5581 47.8691C27.8543 46.3329 29.0349 45.0922 30.6017 44.6704L30.5999 44.664C31.4023 44.45 32.2493 44.4504 33.0517 44.665L34.1745 40.7808C32.6375 40.3715 31.0131 40.3715 29.4761 40.7808L29.4771 40.7841C26.3659 41.6157 24.0185 44.074 23.4253 47.1218L23.3693 47.3987L23.372 47.3993C23.0955 48.8149 23.0932 50.2582 23.3556 51.6588C17.5051 49.5195 13.5145 44.0698 13.5133 37.8724V37.8697V24.9122L25.3965 13.4251C27.3033 11.5784 28.5885 10.3419 29.6749 9.54091C30.7109 8.77752 31.3129 8.60549 31.8253 8.60549C32.3377 8.60549 32.9369 8.77752 33.9757 9.54091C35.0593 10.3419 36.3473 11.5784 38.2541 13.4251L50.1373 24.9122Z" fill="black"/>
</svg>
