<svg width="65" height="65" viewBox="0 0 65 65" fill="none" xmlns="http://www.w3.org/2000/svg">
<path d="M58.9751 29.5558H45.6282C44.2687 29.5558 43.1667 30.6579 43.1667 32.0174C43.1667 36.5489 39.4931 40.2225 34.9615 40.2225H30.0384C25.5069 40.2225 21.8333 36.5489 21.8333 32.0174C21.8333 30.6579 20.7312 29.5558 19.3718 29.5558H6.02482M58.9751 29.5558C58.9305 29.3937 58.8782 29.2338 58.8183 29.0764C58.6704 28.6874 58.461 28.321 58.0423 27.5883L53.4138 19.4884C51.6242 16.3565 50.7293 14.7905 49.4719 13.6512C48.3595 12.6432 47.0467 11.8814 45.6196 11.4156C44.0066 10.8892 42.203 10.8892 38.5958 10.8892H26.4042C22.797 10.8892 20.9933 10.8892 19.3804 11.4156C17.9532 11.8814 16.6405 12.6432 15.528 13.6512C14.2706 14.7905 13.3758 16.3565 11.5861 19.4884L6.95764 27.5883C6.53891 28.321 6.32954 28.6874 6.18162 29.0764C6.12178 29.2338 6.06946 29.3937 6.02482 29.5558M58.9751 29.5558C59.0285 29.7495 59.0709 29.9462 59.1021 30.1449C59.1666 30.556 59.1666 30.978 59.1666 31.822V32.2225C59.1666 39.6899 59.1666 43.4235 57.7134 46.2757C56.4351 48.7845 54.3953 50.8243 51.8865 52.1026C49.0344 53.5558 45.3007 53.5558 37.8333 53.5558H27.1666C19.6993 53.5558 15.9656 53.5558 13.1134 52.1026C10.6046 50.8243 8.56487 48.7845 7.28656 46.2757C5.83331 43.4235 5.83331 39.6899 5.83331 32.2225V31.822C5.83331 30.978 5.83331 30.556 5.89787 30.1449C5.92907 29.9462 5.97147 29.7495 6.02482 29.5558M24.5 18.8892H40.5M29.8333 26.8892H35.1666" stroke="#111111" stroke-width="4" stroke-linecap="round" stroke-linejoin="round"/>
</svg>
