<svg width="220" height="70" viewBox="0 0 220 70" fill="none" xmlns="http://www.w3.org/2000/svg">
<path d="M15.32 49C12.616 49 10.28 48.48 8.312 47.44C6.344 46.4 4.776 44.896 3.608 42.928C2.44 40.96 1.696 38.584 1.376 35.8C1.056 33.016 1.2 29.888 1.808 26.416C2.336 23.504 3.032 20.88 3.896 18.544C4.776 16.192 5.824 14.136 7.04 12.376C8.256 10.616 9.64 9.152 11.192 7.984C12.76 6.8 14.488 5.912 16.376 5.32C18.28 4.728 20.352 4.432 22.592 4.432C26.416 4.432 29.392 5.152 31.52 6.592C33.664 8.032 35.064 10.096 35.72 12.784C36.376 15.472 36.376 18.696 35.72 22.456C35.24 25.176 34.624 27.728 33.872 30.112C33.136 32.48 32.28 34.648 31.304 36.616C30.344 38.584 29.272 40.336 28.088 41.872C26.92 43.408 25.656 44.704 24.296 45.76C22.952 46.816 21.528 47.624 20.024 48.184C18.52 48.728 16.952 49 15.32 49ZM15.272 42.832C16.312 42.832 17.32 42.624 18.296 42.208C19.272 41.792 20.2 41.192 21.08 40.408C21.976 39.608 22.816 38.632 23.6 37.48C24.384 36.328 25.104 35.008 25.76 33.52C26.416 32.032 27 30.4 27.512 28.624C28.04 26.832 28.48 24.904 28.832 22.84C29.184 20.888 29.376 19.16 29.408 17.656C29.456 16.136 29.264 14.856 28.832 13.816C28.4 12.76 27.656 11.96 26.6 11.416C25.544 10.872 24.088 10.6 22.232 10.6C20.824 10.6 19.512 10.824 18.296 11.272C17.08 11.704 15.96 12.368 14.936 13.264C13.928 14.144 13.016 15.248 12.2 16.576C11.4 17.888 10.696 19.424 10.088 21.184C9.48 22.944 8.976 24.92 8.576 27.112C8.24 29.064 8.064 30.856 8.048 32.488C8.048 34.12 8.2 35.576 8.504 36.856C8.824 38.136 9.288 39.224 9.896 40.12C10.52 41 11.28 41.672 12.176 42.136C13.072 42.6 14.104 42.832 15.272 42.832ZM35.7898 69.568C34.6378 69.568 33.8458 69.272 33.4138 68.68C32.9818 68.104 32.8378 67.4 32.9818 66.568L39.8458 27.856C39.9098 27.584 40.0618 27.224 40.3018 26.776C40.5418 26.312 40.9338 25.896 41.4778 25.528C42.0378 25.16 42.7978 24.976 43.7578 24.976C44.8618 24.976 45.6698 25.272 46.1818 25.864C46.7098 26.456 46.8858 27.256 46.7098 28.264L46.4938 29.56C47.6458 28.12 48.8298 26.928 50.0458 25.984C51.2778 25.024 52.5978 24.544 54.0058 24.544C55.7338 24.544 57.1178 24.984 58.1578 25.864C59.1978 26.728 59.8618 28.008 60.1498 29.704C60.4538 31.4 60.3658 33.504 59.8858 36.016L59.4778 38.08L59.6938 37.96C60.1578 37.736 60.5978 37.552 61.0138 37.408C61.4458 37.248 61.8618 37.184 62.2618 37.216C63.0938 37.264 63.7978 37.568 64.3738 38.128C64.9498 38.688 65.1658 39.4 65.0218 40.264C64.9578 40.728 64.7498 41.184 64.3978 41.632C64.0618 42.08 63.6378 42.512 63.1258 42.928L57.3898 47.656C57.0378 47.96 56.6218 48.264 56.1418 48.568C55.6778 48.856 55.0378 49 54.2218 49C53.1018 49 52.2698 48.648 51.7258 47.944C51.1978 47.224 51.0058 46.456 51.1498 45.64L53.1418 34.96C53.3178 34 53.3658 33.184 53.2858 32.512C53.2218 31.824 53.0458 31.304 52.7578 30.952C52.4858 30.6 52.1338 30.424 51.7018 30.424C50.8698 30.424 49.8858 31.168 48.7498 32.656C47.6138 34.144 46.3338 36.056 44.9098 38.392L39.8458 67.024C39.7498 67.536 39.3658 68.088 38.6938 68.68C38.0378 69.272 37.0698 69.568 35.7898 69.568ZM74.5063 49.432C71.9143 49.432 69.9623 48.712 68.6503 47.272C67.3383 45.832 66.6823 43.728 66.6823 40.96C66.6823 38.784 67.0503 36.712 67.7863 34.744C68.5383 32.776 69.5543 31.024 70.8343 29.488C72.1143 27.952 73.5703 26.744 75.2023 25.864C76.8503 24.984 78.5623 24.544 80.3383 24.544C82.5463 24.544 84.1943 24.992 85.2823 25.888C86.3863 26.768 86.9383 28.064 86.9383 29.776C86.9383 30.496 86.7863 31.2 86.4823 31.888C86.1943 32.576 85.7463 33.256 85.1383 33.928C84.5463 34.584 83.8023 35.248 82.9063 35.92C82.0103 36.576 80.9623 37.24 79.7623 37.912C79.0263 38.344 78.1063 38.848 77.0023 39.424C75.8983 39.984 74.7063 40.568 73.4263 41.176C73.4423 41.448 73.4663 41.696 73.4983 41.92C73.5463 42.128 73.6023 42.32 73.6663 42.496C73.7943 42.816 73.9703 43.08 74.1943 43.288C74.4343 43.496 74.7143 43.6 75.0343 43.6C75.7703 43.6 76.4983 43.432 77.2183 43.096C77.9543 42.76 78.5943 42.256 79.1383 41.584C79.8583 40.752 80.6343 40.216 81.4663 39.976C82.3143 39.736 83.0823 39.872 83.7703 40.384C84.1063 40.624 84.3863 40.984 84.6103 41.464C84.8343 41.944 84.9063 42.504 84.8263 43.144C84.7623 43.768 84.4263 44.448 83.8183 45.184C82.7143 46.496 81.3383 47.536 79.6903 48.304C78.0423 49.056 76.3143 49.432 74.5063 49.432ZM74.1703 35.584C74.6183 35.344 75.0583 35.104 75.4903 34.864C75.9223 34.608 76.3623 34.352 76.8103 34.096C77.6903 33.584 78.4183 33.112 78.9943 32.68C79.5703 32.248 80.0023 31.856 80.2903 31.504C80.5943 31.136 80.7463 30.808 80.7463 30.52C80.7463 30.312 80.6983 30.128 80.6023 29.968C80.5223 29.808 80.3783 29.728 80.1703 29.728C79.2743 29.728 78.4423 29.976 77.6743 30.472C76.9063 30.952 76.2263 31.632 75.6343 32.512C75.0423 33.392 74.5543 34.416 74.1703 35.584ZM92.0071 49C90.8551 49 90.0551 48.704 89.6071 48.112C89.1751 47.52 89.0311 46.816 89.1751 46L92.4151 27.856C92.4791 27.584 92.6311 27.224 92.8711 26.776C93.1111 26.312 93.5031 25.896 94.0471 25.528C94.6071 25.16 95.3671 24.976 96.3271 24.976C97.4311 24.976 98.2391 25.272 98.7511 25.864C99.2631 26.456 99.4311 27.256 99.2551 28.264L99.0391 29.536C100.191 28.112 101.375 26.952 102.591 26.056C103.823 25.144 105.143 24.688 106.551 24.688C108.279 24.688 109.647 25.112 110.655 25.96C111.679 26.808 112.343 28.072 112.647 29.752C112.951 31.416 112.879 33.504 112.431 36.016L110.535 46.696C110.455 47.176 110.111 47.68 109.503 48.208C108.911 48.736 107.999 49 106.767 49C105.647 49 104.823 48.648 104.295 47.944C103.767 47.224 103.575 46.456 103.719 45.64L105.687 34.96C105.863 34 105.911 33.2 105.831 32.56C105.767 31.904 105.599 31.408 105.327 31.072C105.055 30.736 104.695 30.568 104.247 30.568C103.415 30.568 102.431 31.296 101.295 32.752C100.159 34.192 98.8791 36.088 97.4551 38.44L96.0391 46.48C95.9591 46.976 95.5831 47.52 94.9111 48.112C94.2391 48.704 93.2711 49 92.0071 49ZM121.162 49.072C120.09 49.072 119.25 48.744 118.642 48.088C118.034 47.416 117.818 46.6 117.994 45.64L124.21 10.36H115.81C114.706 10.36 113.858 10.064 113.266 9.472C112.674 8.88 112.378 8.184 112.378 7.384C112.378 6.488 112.69 5.736 113.314 5.128C113.938 4.504 114.77 4.192 115.81 4.192H140.626C141.666 4.192 142.49 4.504 143.098 5.128C143.722 5.736 144.034 6.488 144.034 7.384C144.034 8.184 143.738 8.88 143.146 9.472C142.554 10.064 141.714 10.36 140.626 10.36H131.146L124.858 46.336C124.714 47.056 124.346 47.696 123.754 48.256C123.162 48.8 122.298 49.072 121.162 49.072ZM141.775 49C141.263 49 140.727 48.88 140.167 48.64C139.623 48.4 139.191 48.032 138.871 47.536C138.551 47.024 138.455 46.376 138.583 45.592L145.375 7.024C145.551 6.064 145.967 5.392 146.623 5.008C147.279 4.624 147.983 4.432 148.735 4.432C149.711 4.432 150.551 4.736 151.255 5.344C151.975 5.936 152.247 6.784 152.071 7.888L148.279 29.704C149.463 28.232 150.663 27.008 151.879 26.032C153.111 25.04 154.455 24.544 155.911 24.544C157.639 24.544 159.007 24.984 160.015 25.864C161.039 26.728 161.703 28.008 162.007 29.704C162.311 31.4 162.239 33.504 161.791 36.016L159.895 46.696C159.815 47.176 159.471 47.68 158.863 48.208C158.255 48.736 157.327 49 156.079 49C154.991 49 154.183 48.648 153.655 47.944C153.127 47.224 152.935 46.456 153.079 45.64L154.975 34.96C155.151 34 155.207 33.184 155.143 32.512C155.079 31.824 154.911 31.304 154.639 30.952C154.367 30.6 153.999 30.424 153.535 30.424C152.719 30.424 151.735 31.192 150.583 32.728C149.431 34.248 148.135 36.216 146.695 38.632L145.399 46C145.239 46.976 144.775 47.72 144.007 48.232C143.255 48.744 142.511 49 141.775 49ZM168.868 49C167.7 49 166.9 48.704 166.468 48.112C166.052 47.52 165.9 46.816 166.012 46L169.252 27.856C169.3 27.584 169.444 27.224 169.684 26.776C169.94 26.312 170.348 25.896 170.908 25.528C171.468 25.16 172.228 24.976 173.188 24.976C174.276 24.976 175.076 25.272 175.588 25.864C176.116 26.456 176.292 27.256 176.116 28.264L172.9 46.48C172.82 46.976 172.444 47.52 171.772 48.112C171.1 48.704 170.132 49 168.868 49ZM174.388 20.656C173.428 20.656 172.588 20.304 171.868 19.6C171.164 18.88 170.812 18.016 170.812 17.008C170.812 16.032 171.164 15.184 171.868 14.464C172.572 13.728 173.412 13.36 174.388 13.36C175.332 13.36 176.18 13.712 176.932 14.416C177.7 15.104 178.084 15.968 178.084 17.008C178.084 18.016 177.716 18.88 176.98 19.6C176.26 20.304 175.396 20.656 174.388 20.656ZM187.379 49.432C186.451 49.432 185.411 49.288 184.259 49C183.123 48.728 182.123 48.32 181.259 47.776C179.931 46.928 179.075 46.04 178.691 45.112C178.307 44.184 178.371 43.32 178.883 42.52C179.347 41.704 180.051 41.328 180.995 41.392C181.955 41.456 182.811 41.736 183.563 42.232C183.851 42.392 184.371 42.656 185.123 43.024C185.891 43.376 186.659 43.552 187.427 43.552C188.131 43.552 188.635 43.376 188.939 43.024C189.259 42.672 189.419 42.32 189.419 41.968C189.419 41.696 189.379 41.48 189.299 41.32C189.219 41.144 189.043 40.952 188.771 40.744C188.323 40.424 187.763 40.056 187.091 39.64C186.419 39.208 185.707 38.768 184.955 38.32C183.499 37.456 182.395 36.424 181.643 35.224C180.891 34.008 180.515 32.648 180.515 31.144C180.515 29.064 181.291 27.448 182.843 26.296C184.395 25.128 186.523 24.544 189.227 24.544C190.155 24.544 191.139 24.632 192.179 24.808C193.219 24.984 194.179 25.28 195.059 25.696C196.339 26.304 197.227 27.048 197.723 27.928C198.235 28.808 198.219 29.768 197.675 30.808C197.259 31.56 196.595 31.944 195.683 31.96C194.787 31.976 193.899 31.752 193.019 31.288C192.475 31 191.811 30.752 191.027 30.544C190.259 30.336 189.467 30.232 188.651 30.232C188.075 30.232 187.619 30.336 187.283 30.544C186.963 30.752 186.803 31.016 186.803 31.336C186.803 31.736 187.027 32.144 187.475 32.56C187.939 32.976 188.683 33.512 189.707 34.168C190.395 34.616 191.115 35.088 191.867 35.584C192.619 36.064 193.187 36.496 193.571 36.88C194.195 37.472 194.715 38.144 195.131 38.896C195.547 39.632 195.755 40.704 195.755 42.112C195.755 43.568 195.411 44.848 194.723 45.952C194.051 47.056 193.083 47.912 191.819 48.52C190.571 49.128 189.091 49.432 187.379 49.432Z" fill="#333333"/>
<path d="M209.505 36C208.569 35.9307 207.728 35.5493 206.983 34.856C206.255 34.1627 205.986 33.2873 206.177 32.23L211.299 3.604C211.455 2.72 211.975 2.018 212.859 1.498C213.743 0.977997 214.601 0.717997 215.433 0.717997C216.317 0.717997 217.149 1.02133 217.929 1.628C218.709 2.21733 219.003 3.01466 218.813 4.02L213.691 32.672C213.5 33.7293 212.963 34.5613 212.079 35.168C211.212 35.7747 210.354 36.052 209.505 36ZM207.815 49C206.532 49 205.449 48.5147 204.565 47.544C203.681 46.5733 203.239 45.4553 203.239 44.19C203.239 42.9593 203.681 41.8933 204.565 40.992C205.449 40.0733 206.532 39.614 207.815 39.614C209.063 39.614 210.155 40.0733 211.091 40.992C212.027 41.8933 212.495 42.9593 212.495 44.19C212.495 45.4553 212.027 46.5733 211.091 47.544C210.155 48.5147 209.063 49 207.815 49Z" fill="#D3F113"/>
</svg>
