<svg width="56" height="56" viewBox="0 0 56 56" fill="none" xmlns="http://www.w3.org/2000/svg">
<path d="M22.9213 6.03787L24.0551 9.53397C19.7017 10.95 16.352 14.4607 15.142 18.8758L15.0327 19.2801C14.2222 22.272 14.073 25.4045 14.5961 28.4597L14.6489 28.7762H14.6498C14.8287 29.8387 14.3132 30.8973 13.3666 31.4119L12.5649 29.9412L13.3666 31.4148C12.2323 32.0322 11.4623 33.2405 11.4623 34.6297C11.458 36.3626 12.6736 37.8592 14.3705 38.2107H14.3725L15.2719 38.3953C23.6708 40.1066 32.3291 40.1066 40.728 38.3953L41.6274 38.2107L42.3618 41.8123L41.4623 41.9959C39.9594 42.3021 38.4487 42.5559 36.933 42.7586C36.9188 42.822 36.9064 42.8858 36.8911 42.949L36.3998 42.8279H36.3979L36.8911 42.949L36.6899 43.7674L33.9399 43.0916H33.9389L36.6879 43.7674C35.8985 46.9888 33.3757 49.5003 30.1508 50.2752V50.2771L30.1498 50.2752C28.7367 50.6154 27.2622 50.6156 25.8491 50.2752L25.8461 50.2771V50.2742C22.6225 49.4985 20.1012 46.9879 19.312 43.7674L19.1118 42.949L19.0678 42.7586C17.5518 42.5559 16.0408 42.3022 14.5375 41.9959L13.6352 41.8123V41.8113C10.2264 41.1168 7.78754 38.1067 7.78754 34.6287H7.79047C7.78783 32.2241 8.96243 29.9908 10.9008 28.6267C10.3772 25.1893 10.5745 21.6784 11.4848 18.3191L11.5952 17.9129C13.1303 12.2999 17.3872 7.83662 22.9213 6.03787ZM33.0141 43.1658C32.7967 43.182 32.5793 43.1976 32.3618 43.2117C32.2579 43.2184 32.1541 43.225 32.0502 43.2312C31.8813 43.2414 31.7124 43.2506 31.5434 43.2596C31.4246 43.2658 31.3058 43.2715 31.187 43.2771C30.9874 43.2866 30.7879 43.2958 30.5883 43.3035C30.5336 43.3056 30.4789 43.3074 30.4243 43.3094C29.9052 43.3281 29.3859 43.3417 28.8666 43.3484C28.7986 43.3493 28.7306 43.3497 28.6625 43.3504C28.2205 43.3547 27.7784 43.3547 27.3364 43.3504C27.2683 43.3497 27.2003 43.3493 27.1323 43.3484C26.613 43.3417 26.0938 43.3281 25.5746 43.3094C25.52 43.3074 25.4653 43.3056 25.4106 43.3035C25.211 43.2958 25.0115 43.2866 24.812 43.2771C24.6931 43.2715 24.5743 43.2658 24.4555 43.2596C24.2865 43.2506 24.1176 43.2414 23.9487 43.2312C23.8448 43.225 23.741 43.2184 23.6371 43.2117C23.4196 43.1976 23.2022 43.182 22.9848 43.1658C22.9763 43.1652 22.9679 43.1645 22.9594 43.1638C23.4907 44.9161 24.9099 46.267 26.7036 46.7C27.5562 46.9058 28.4437 46.9058 29.2963 46.7L29.9018 49.2322L29.2983 46.7C31.0921 46.2673 32.5108 44.9162 33.0424 43.1638C33.033 43.1646 33.0235 43.1651 33.0141 43.1658ZM44.5795 18.4002L44.7407 19.0506C45.4746 22.1881 45.5944 25.4382 45.0981 28.6238C47.0401 29.9886 48.215 32.2241 48.2123 34.6287C48.2173 38.1084 45.773 41.1113 42.3647 41.8123L41.6293 38.2107C43.3147 37.8677 44.5373 36.3763 44.5375 34.6297L44.5287 34.3738C44.4421 33.1075 43.7156 32.0182 42.6684 31.4324L43.9409 29.159L43.9379 29.158L42.6684 31.4295C41.7496 30.915 41.1638 29.8514 41.3598 28.7146L41.4184 28.3767L42.6147 28.5799L41.4184 28.3748C41.9335 25.3678 41.8002 22.2849 41.0268 19.3338V19.3328L41.0239 19.3338L40.8725 18.7508V18.7478L44.4272 17.8172L44.5795 18.4002ZM28.0004 2.75467C29.0151 2.75489 29.8373 3.57787 29.8373 4.59256V5.29764C31.0401 5.41974 32.2333 5.66857 33.395 6.04959L33.9008 6.22635C39.084 8.12807 43.0239 12.4516 44.4252 17.8152L40.8725 18.7478C39.7409 14.4157 36.4933 10.9505 32.2436 9.5408C30.9141 9.10535 29.5326 8.88665 28.1508 8.88455C28.1012 8.88859 28.0511 8.89235 28.0004 8.89236C27.9767 8.89236 27.9527 8.88935 27.9291 8.88846C26.6212 8.90842 25.3149 9.12062 24.0551 9.52908L22.9213 6.03299C23.9816 5.68908 25.0673 5.45259 26.1625 5.32401V4.59256C26.1625 3.57774 26.9856 2.75467 28.0004 2.75467Z" fill="black"/>
</svg>
